# xmcd
#
# Track frame offsets: 
#        150
#        3237
#        13618
#        29985
#        50829
#        75228
#        78032
#
# Disc length: 1298 seconds
#
# Revision: 0
# Processed by: cddbd v1.5.2PL0 Copyright (c) Steve Scherf et al.
# Submitted via: ExactAudioCopy v0.95b3
#
DISCID=45051007
DTITLE=Alan Parsons Project  - The Complete Audio Guide To The Alan Pa
DTITLE=rsons Project - Disc 5
DYEAR=1900
DGENRE=
TTITLE0=May Be A Price To Pay (excerpt)
TTITLE1=The Turn Of A Friendly Card (excerpt)
TTITLE2=Snake Eyes
TTITLE3=Games People Play
TTITLE4=Time
TTITLE5=Sirius (excerpt)
TTITLE6=Eye In The Sky
EXTD=
EXTT0=
EXTT1=
EXTT2=
EXTT3=
EXTT4=
EXTT5=
EXTT6=
PLAYORDER=
